PathFileType	4	(X/Y/Z)	C:/Users/beibeiliu/ov580/test_trc/capture2\sequence.37_training_dense_right.trc
DataRate	CameraRate	NumFrames	NumMarkers	Units	OrigDataRate	OrigDataStartFrame	OrigNumFrames
120	120	16	19	mm	120	139	370
Frame#	Time	ThumbCMC			ThumbMCP			ThumbIP			ThumbTip			IndexMCP			IndexPIP			IndexTip			MiddleMCP			MiddlePIP			MiddleTip			RingMCP			RingPIP			RingTip			PinkyMCP			PinkyPIP			PinkyTip			BackHand1			BackHand2			BackHand3	
		X0	Y0	Z0	X1	Y1	Z1	X2	Y2	Z2	X3	Y3	Z3	X4	Y4	Z4	X5	Y5	Z5	X6	Y6	Z6	X7	Y7	Z7	X8	Y8	Z8	X9	Y9	Z9	X10	Y10	Z10	X11	Y11	Z11	X12	Y12	Z12	X13	Y13	Z13	X14	Y14	Z14	X15	Y15	Z15	X16	Y16	Z16	X17	Y17	Z17	X18	Y18	Z18	
138	1.15	157.873	48.3376	29.53	146.372	59.1571	3.14214	140.151	58.9835	-25.8709	128.646	37.8287	-43.2321	158.659	16.7288	-42.2073	134.294	23.9228	-61.3915	107.324	32.7276	-48.5197	153.871	0.0669516	-45.8385	125.268	8.82474	-61.6897	99.8627	18.3683	-45.8653	146.159	-16.8417	-35.7089	117.924	-10.1067	-53.9193	99.9843	12.7792	-37.4952	138.416	-28.5348	-24.9777	117.099	-20.7514	-42.6032	96.1547	2.2726	-30.9898	166.314	-16.3542	13.3575	166.813	-13.9371	43.9526	175.724	14.7766	25.8629	
139	1.15833	156.724	44.5033	30.6552	145.98	54.5146	2.82197	139.454	58.2512	-25.0335	129.403	38.1866	-38.6675	160.456	20.2118	-43.1086	133.993	24.5682	-60.9319	108.925	33.4291	-49.5959	155.019	0.463133	-45.0742	125.329	7.10283	-61.704	99.4844	18.148	-44.4269	146.941	-14.6517	-36.1581	121.372	-11.3293	-53.6688	98.6935	10.8001	-35.388	137.164	-31.1743	-24.5679	118.825	-23.0613	-42.3896	97.0546	1.51788	-31.7817	165.733	-15.531	13.6328	168.068	-13.393	44.9776	176.501	13.0451	25.2862	
140	1.16667	158.028	44.2104	28.1111	146.138	59.9782	3.26617	138.872	59.4356	-21.451	130.159	40.0925	-41.3344	160.836	19.6886	-40.0865	132.326	21.0086	-59.3894	107.353	35.3395	-48.3498	155.671	0.477188	-42.3003	126.572	7.54262	-62.2782	98.2037	17.7873	-44.0405	145.729	-19.6324	-37.5494	121.529	-9.30152	-54.6199	97.0909	9.09706	-35.0554	138.299	-30.2606	-20.3313	119.689	-24.0803	-42.2012	97.9315	3.47882	-31.7809	162.693	-19.0501	17.6985	166.069	-13.0187	43.3518	177.563	16.1589	24.3552	
141	1.175	157.989	47.7547	30.8863	144.783	55.8495	1.8628	140.087	60.9295	-25.0524	130.141	44.1538	-42.0942	160.141	19.2646	-43.9039	134.542	18.6696	-59.2777	107.591	30.8521	-46.975	153.661	-3.09805	-41.6231	128.34	7.12249	-61.9335	99.7277	19.0598	-45.5205	146.073	-15.7156	-39.0538	118.681	-10.5099	-53.1977	99.535	9.13115	-40.0381	136.762	-33.4827	-20.0068	115.566	-22.6736	-41.4502	96.5883	-1.86964	-31.4007	165.601	-16.1339	14.5013	166.608	-15.6669	46.8096	176.122	10.8512	24.8624	
142	1.18333	158.19	46.0842	25.8747	144.77	58.6703	3.41111	139.922	61.7348	-24.3511	131.479	51.5259	-43.2086	159.863	15.7085	-41.5773	136.554	20.5622	-59.8932	107.935	31.6751	-50.4071	153.74	-3.41029	-43.9969	128.328	1.522	-60.4293	98.5573	20.1735	-41.6383	144.857	-19.4519	-39.557	123.346	-11.7139	-53.835	97.6443	10.234	-36.35	137.025	-33.1063	-21.705	118.387	-24.6187	-41.4201	94.2777	-1.50507	-31.6146	164.222	-16.6527	18.953	166.515	-17.9998	43.659	179.083	13.0279	24.0908	
143	1.19167	157.218	42.6194	25.9121	143.116	56.3646	5.39827	138.643	63.8829	-23.5138	133.288	57.5465	-47.5617	160.91	16.8699	-39.4629	134.002	21.3999	-60.4739	105.945	28.428	-48.8155	154.687	-4.29921	-41.445	127.859	0.634261	-60.44	99.1772	20.0608	-42.9426	146.594	-19.8908	-33.6784	116.446	-12.7185	-52.0846	97.9505	7.72894	-38.2313	137.222	-34.3036	-18.3136	116.336	-27.4058	-39.048	98.8978	0.428023	-33.2015	166.912	-18.0283	14.4414	165.938	-13.1681	49.0932	175.682	12.0752	24.3602	
144	1.2	156.162	43.2159	31.4018	141.541	56.1523	5.13118	137.988	61.8599	-20.2952	133.35	64.3517	-43.2178	159.527	15.5505	-42.504	132.36	17.2916	-59.4188	107.405	30.3489	-51.7994	155.251	-1.96132	-40.3985	126.475	2.03913	-59.5799	99.8011	18.1297	-44.7637	145.002	-21.1017	-36.478	120.351	-16.2625	-50.9079	95.7458	6.78604	-35.8945	136.235	-36.3613	-19.9007	114.229	-23.8505	-40.2797	98.7428	-3.01662	-32.8233	163.779	-18.8973	14.831	166.995	-13.5603	49.7468	178.32	10.3765	23.9165	
145	1.20833	155.397	41.8593	29.7829	141.323	52.1926	3.10714	137.305	63.3783	-19.6249	134.338	65.5592	-42.9841	157.523	11.8606	-41.0362	135.11	15.8398	-59.3715	106.122	29.0384	-50.2664	155.034	-5.20531	-40.1997	127.631	0.626991	-60.3555	98.5456	15.4647	-43.7817	145.397	-21.3494	-35.5571	118.011	-13.928	-51.8084	95.5808	5.13742	-35.0767	136.613	-34.532	-19.1862	115.243	-26.6404	-38.678	93.3472	-4.25919	-28.9046	163.007	-22.8473	19.6156	165.815	-15.6738	48.3816	176.714	7.51546	26.1726	
146	1.21667	155.691	41.4312	26.3796	140.771	50.8368	6.11414	138.05	61.2666	-21.3787	133.102	64.3354	-41.0156	158.821	14.6378	-43.4905	137.006	17.7559	-59.3435	104.099	26.8128	-46.134	153.567	-4.59427	-40.5132	125.405	0.733999	-59.2879	96.8238	17.2645	-39.6596	144.009	-22.0105	-33.2313	117.052	-13.7353	-50.1828	95.9826	5.21878	-35.8001	134.834	-35.6878	-22.9711	112.796	-23.884	-38.7017	97.0143	0.496635	-28.2379	166.438	-20.126	15.5989	164.06	-16.4086	46.7266	175.136	9.87607	27.811	
147	1.225	155.515	42.9852	26.9654	140.043	51.3039	5.56887	137.289	59.9307	-19.7915	133.442	61.756	-42.615	157.935	11.8194	-39.3865	133.462	15.4937	-58.5884	104.35	27.6789	-45.3015	151.507	-7.42589	-42.7646	122.919	3.11672	-59.4961	98.2043	20.6468	-39.8424	144.045	-20.5782	-34.6308	118.067	-14.9285	-50.3437	95.8498	5.79604	-35.0554	136.299	-32.6202	-19.3792	112.974	-26.2967	-37.13	92.8909	-3.16725	-29.0238	165.309	-20.2661	18.3406	164.807	-14.9872	44.8183	174.527	8.53193	28.2896	
148	1.23333	154.921	41.2675	27.968	140.273	53.1295	3.14531	137.907	61.8881	-23.1824	133.096	63.9843	-43.4286	157.998	14.5335	-42.8129	129.809	17.9399	-57.9236	103.547	30.989	-44.8731	151.753	-4.11584	-43.3465	125.45	0.436647	-59.0641	96.9737	17.4149	-37.93	144.014	-19.5891	-37.2556	117.354	-15.2479	-50.7611	97.8935	7.16423	-34.5216	135.216	-34.608	-23.7534	109.262	-25.4818	-37.4513	94.7722	0.292778	-25.1302	163.471	-21.5895	16.0486	165.677	-15.0122	46.7392	176.31	7.66732	27.7518	
149	1.24167	154.24	44.4617	28.3412	139.708	51.5204	6.97184	136.881	63.3308	-22.5482	131.832	60.4247	-44.7279	157.076	13.2318	-40.6553	132.51	17.1041	-57.0894	104.23	25.8252	-44.8201	152.532	-3.04789	-41.3591	124.531	3.16957	-58.0742	95.9572	17.0747	-36.9704	144.126	-18.6109	-36.3828	118.781	-13.8187	-49.9459	95.6744	7.96094	-30.3647	134.991	-33.6695	-24.3863	111.18	-24.914	-38.5945	95.3982	-0.116731	-25.2279	165.512	-19.9902	17.0342	165.638	-16.9896	46.5191	176.391	12.197	24.7665	
150	1.25	154.21	43.2727	28.7851	139.847	51.564	2.38649	136.152	60.4637	-20.878	132.982	63.3883	-46.0816	157.619	17.6132	-41.4196	132.77	22.2166	-59.2716	102.326	32.4253	-40.7516	150.019	-3.66439	-43.575	120.215	3.55118	-56.8311	95.3202	17.5688	-34.0068	143.769	-20.1384	-35.1381	114.681	-11.1508	-50.3784	97.5865	7.14316	-33.0235	136.85	-32.3796	-22.1919	114.134	-27.4886	-38.8598	94.5422	-2.17426	-25.4817	166.581	-19.55	14.2789	166.633	-14.8545	43.8317	175.775	10.9018	23.7666	
151	1.25833	154.663	43.8379	25.7205	138.95	53.9984	3.68262	136.618	57.7001	-23.7289	131.423	60.1329	-46.055	157.353	19.5761	-41.1142	130.995	20.1828	-56.8322	101.364	30.1703	-38.0185	150.435	-3.62612	-41.077	121.799	4.56074	-56.9555	97.1656	20.0056	-36.2842	141.023	-22.8306	-39.3393	113.462	-12.1356	-49.938	97.195	4.85039	-31.0046	135.724	-37.3247	-22.0273	112.349	-25.5914	-39.4359	96.1418	-1.90958	-23.3206	165.668	-18.774	15.2871	164.575	-17.6712	48.4829	175.077	11.5707	24.469	
152	1.26667	152.853	40.6311	27.6589	138.568	52.9465	4.99603	135.706	62.7349	-25.6158	132.553	63.1264	-46.0467	155.729	17.4059	-40.4518	128.977	23.6912	-56.3252	102.741	30.5819	-37.2681	147.622	-2.64099	-45.7268	120.419	8.38207	-55.4677	95.3778	17.8897	-31.4179	142.605	-20.8763	-35.8135	118.777	-11.0584	-50.3228	99.1328	8.04534	-31.3245	136.211	-33.1758	-22.1645	109.907	-24.4709	-38.6139	97.3686	-2.57114	-26.1397	164.811	-23.5231	16.7904	163.947	-12.3726	47.7326	174.52	13.3094	26.5745	
153	1.275	153.321	42.6261	30.2502	139.385	53.5007	4.06412	136.756	62.1209	-25.0403	131.378	64.9241	-45.1744	155.897	23.1567	-42.9825	128.121	26.6414	-55.7271	102.605	30.9191	-35.7062	151.488	0.881549	-41.3756	117.826	8.49031	-53.7649	96.974	23.7771	-28.8151	143.119	-17.9342	-39.724	115.687	-8.79584	-49.0827	97.6615	8.08916	-27.7655	136.84	-33.2191	-24.0684	112.557	-22.8549	-39.3057	100.511	2.08925	-25.4381	164.708	-21.6939	14.8594	165.867	-16.2675	43.5453	174.202	11.4965	27.1739	
